# xmcd CD database file
#
# Track frame offsets:
#	150
#	23323
#	55158
#	84098
#	115422
#	140474
#	165972
#	198494
#
# Disc length: 3028 seconds
#
# Revision: 1
# Processed by: cddbd v1.5.1PL0 Copyright (c) Steve Scherf et al.
# Submitted via: CD2WAV32(JP) R3.22
#
DISCID=560bd208
DTITLE=布川俊樹 - VALIS
DYEAR=1991
DGENRE=Jazz
TTITLE0=Parrot Cops Coming Soon
TTITLE1=Beat Panic
TTITLE2=Steppin' Into your Brain
TTITLE3=Pororoca
TTITLE4=Long Long Way
TTITLE5=Chinese Mafia
TTITLE6=Jungle Love
TTITLE7=Carib
EXTD=
EXTT0=
EXTT1=
EXTT2=
EXTT3=
EXTT4=
EXTT5=
EXTT6=
EXTT7=
PLAYORDER=
